<?xml version="1.0" ?><!DOCTYPE svg  PUBLIC '-//W3C//DTD SVG 1.1//EN'  'http://www.w3.org/2001/XMLSchema'><svg enable-background="new -0.5 -0.5 130 130" height="130px" overflow="visible" version="1.1" viewBox="-0.5 -0.5 130 130" width="130px" xmlns="http://www.w3.org/2000/svg"><defs/><path d="M87.914,29.502c0.006,1.1-0.881,1.996-1.98,2.001l0,0c-1.1,0.005-1.995-0.882-2.001-1.981L83.9,22.886  c-0.004-1.1,0.883-1.995,1.982-2.001l0,0c1.1-0.005,1.994,0.882,2,1.981L87.914,29.502z" fill="#939598"/><path d="M67.656,36.355c0.781,0.773,0.787,2.034,0.014,2.815l0,0c-0.774,0.782-2.034,0.788-2.815,0.013l-4.716-4.67  c-0.779-0.773-0.786-2.033-0.014-2.814l0,0c0.773-0.781,2.035-0.787,2.816-0.014L67.656,36.355z" fill="#939598"/><path d="M104.459,78.41c-0.781-0.774-0.787-2.035-0.014-2.814l0,0c0.774-0.781,2.034-0.787,2.816-0.014l4.713,4.67  c0.781,0.773,0.787,2.033,0.014,2.814l0,0c-0.771,0.781-2.033,0.789-2.814,0.014L104.459,78.41z" fill="#939598"/><path d="M113.938,59.239c-1.1,0.006-1.994-0.882-2-1.981l0,0c-0.004-1.098,0.882-1.994,1.982-1.999l6.635-0.032  c1.1-0.006,1.994,0.881,2,1.981l0,0c0.006,1.099-0.881,1.995-1.981,1.999L113.938,59.239z" fill="#939598"/><path d="M107.086,38.981c-0.775,0.782-2.036,0.787-2.816,0.013l0,0c-0.779-0.773-0.787-2.032-0.013-2.814  l4.669-4.714c0.775-0.782,2.033-0.788,2.815-0.014l0,0c0.78,0.772,0.788,2.034,0.013,2.814L107.086,38.981z" fill="#939598"/><path d="M85.143,104.428H27.634c-9.245,0-16.766-7.9-16.766-17.611c0-7.832,4.878-14.602,11.857-16.828  c0.398-8.894,7.759-16.006,16.749-16.006c2.561,0,5.053,0.579,7.326,1.688c4.18-6.313,11.213-10.146,18.891-10.146  c12.508,0,22.686,10.178,22.686,22.686c0,0.437-0.015,0.879-0.045,1.329c7.789,1.558,13.576,8.69,13.576,17.276  C101.908,96.527,94.388,104.428,85.143,104.428z M39.475,58.76c-6.611,0-11.99,5.377-11.99,11.988c0,0.285,0.023,0.564,0.043,0.844  l0.158,2.135l-2.102,0.458c-5.759,1.063-9.939,6.377-9.939,12.632c0,7.078,5.379,12.836,11.989,12.836h57.509  c6.611,0,11.989-5.758,11.989-12.836c0-6.928-5.071-12.553-11.546-12.807l-2.715-0.106l0.454-2.679  c0.186-1.096,0.275-2.081,0.275-3.014c0-9.875-8.034-17.908-17.909-17.908c-6.725,0-12.824,3.725-15.916,9.723l-1.248,2.419  l-2.235-1.551C44.277,59.497,41.92,58.76,39.475,58.76z" fill="#939598"/><path d="M85.953,35.484c-9.109,0.044-16.902,5.677-20.159,13.624c1.362,0.194,2.687,0.501,3.966,0.905  c2.8-6.182,8.992-10.513,16.212-10.547c9.88-0.049,17.956,7.951,18.003,17.83c0.038,7.914-5.097,14.643-12.218,17.037  c1.235,0.841,2.343,1.855,3.288,3.009c7.639-3.451,12.954-11.155,12.912-20.065C107.898,45.203,98.027,35.426,85.953,35.484z" fill="#939598"/><path d="M42.859,74.225l6.691,10.125V74.131c0-0.664,0.143-1.162,0.428-1.494s0.67-0.498,1.154-0.498  c0.5,0,0.895,0.166,1.184,0.498s0.434,0.83,0.434,1.494v13.512c0,1.508-0.625,2.262-1.875,2.262c-0.312,0-0.594-0.045-0.844-0.135  s-0.484-0.232-0.703-0.428s-0.422-0.424-0.609-0.686s-0.375-0.529-0.562-0.803l-6.527-10.008v10.066  c0,0.656-0.152,1.152-0.457,1.488S40.477,89.904,40,89.904c-0.492,0-0.887-0.17-1.184-0.51s-0.445-0.834-0.445-1.482V74.658  c0-0.562,0.062-1.004,0.188-1.324c0.148-0.352,0.395-0.639,0.738-0.861s0.715-0.334,1.113-0.334c0.312,0,0.58,0.051,0.803,0.152  s0.418,0.238,0.586,0.41s0.34,0.395,0.516,0.668S42.672,73.928,42.859,74.225z" fill="#939598"/><path d="M60.871,74.518L57.59,88.029c-0.109,0.445-0.205,0.797-0.287,1.055s-0.207,0.459-0.375,0.604  s-0.412,0.217-0.732,0.217c-0.797,0-1.195-0.344-1.195-1.031c0-0.18,0.078-0.629,0.234-1.348l3.27-13.512  c0.172-0.719,0.336-1.211,0.492-1.477s0.461-0.398,0.914-0.398c0.391,0,0.689,0.094,0.896,0.281s0.311,0.445,0.311,0.773  C61.117,73.436,61.035,73.877,60.871,74.518z" fill="#939598"/><path d="M74.289,87.666l-0.82-2.156h-6.984l-0.82,2.203c-0.32,0.859-0.594,1.439-0.82,1.74s-0.598,0.451-1.113,0.451  c-0.438,0-0.824-0.16-1.16-0.48s-0.504-0.684-0.504-1.09c0-0.234,0.039-0.477,0.117-0.727s0.207-0.598,0.387-1.043l4.395-11.156  c0.125-0.32,0.275-0.705,0.451-1.154s0.363-0.822,0.562-1.119s0.461-0.537,0.785-0.721s0.725-0.275,1.201-0.275  c0.484,0,0.889,0.092,1.213,0.275s0.586,0.42,0.785,0.709s0.367,0.6,0.504,0.932s0.311,0.775,0.521,1.33l4.488,11.086  c0.352,0.844,0.527,1.457,0.527,1.84c0,0.398-0.166,0.764-0.498,1.096s-0.732,0.498-1.201,0.498c-0.273,0-0.508-0.049-0.703-0.146  s-0.359-0.23-0.492-0.398s-0.275-0.426-0.428-0.773S74.398,87.932,74.289,87.666z M67.398,82.896h5.133l-2.59-7.09L67.398,82.896z" fill="#939598"/></svg>
